<svg id="Calque_1" data-name="Calque 1" xmlns="http://www.w3.org/2000/svg" viewBox="0 0 1369.05 470.34"><defs><style>.cls-1,.cls-4{opacity:0.8;}.cls-2,.cls-4{fill:#fff;}.cls-3{fill:#d7c1ed;}.cls-4{font-size:400px;font-family:Tangerine-Regular, Tangerine;}</style></defs><g class="cls-1"><path class="cls-2" d="M225.35,69A308.52,308.52,0,0,1,261,70.93a145.52,145.52,0,0,1,27.78,5.66q11.59,3.76,18.33,8.89t6.73,11.58a37.41,37.41,0,0,1-1.88,10.51c-1.27,4.13-2.79,8.35-4.59,12.66s-3.86,8.62-6.19,12.94a87.6,87.6,0,0,1-6.74,10.77,2.86,2.86,0,0,1-3.51-.27,2.48,2.48,0,0,1-.81-3.5c6.71-13,2.87-21.06.93-29.17-2.25-9.41-4-14-19-20s-55.24-3.53-75-3c-37,1-21,0-48,7-22.37,5.8-46.74,20.11-62,36.82s-27.15,36.56-35.6,59.54-12.68,48.32-12.68,76q0,30.18,8.09,55.77T70.5,367.3a109.58,109.58,0,0,0,38.26,29.1C123.84,403.4,163,388,180,385c25.47-4.5,27.91,13.92,45.15-2.07s29.45-37.27,36.64-63.86q1.08-2.69,3.5-2.15a2.93,2.93,0,0,1,2.43,3.23,228,228,0,0,1-6.47,25.06q-4.32,13.74-9.16,25.86t-9.43,21c-3,5.92-16.5,7.19-18.66,7.91-12-2-33.77,1-48,1-12,0-18,1-40,9-20.6,7.49-25.72,2.75-43.14-3.9S60.7,390.2,48.67,378.35a121.74,121.74,0,0,1-27.75-42,139.49,139.49,0,0,1-9.7-52.26,218.84,218.84,0,0,1,15.65-82.18,210,210,0,0,1,44-68.44q28.31-29.36,67.68-46.88T225.35,69Z" transform="translate(-11.22 -32)"/></g><path class="cls-3" d="M335.39,78.24A3.12,3.12,0,0,0,336.93,83a223.47,223.47,0,0,1,50.69,24.63,267.45,267.45,0,0,1,45.22,36.9,220.75,220.75,0,0,1,33.08,43q13.2,22.68,18.26,44.74,6.75,29.41,2.89,56A122.8,122.8,0,0,1,469,337.19q-14.24,22.33-38.73,38.46t-58.64,23.94a254.79,254.79,0,0,1-37.9,5.92q-17.93,1.35-34.33,1t-31.66-1.87l-29-2.81a3.15,3.15,0,0,0-2.58,1,147.69,147.69,0,0,1-39.1,29.9q-22.92,12.18-52.86,19-16.82,3.85-24.54,1.47t-9.3-9.2q-1.56-6.83,1.42-15.53a52.94,52.94,0,0,1,9.94-16.92,71.66,71.66,0,0,1,18.14-14.94,90.24,90.24,0,0,1,26.41-10.2,184.38,184.38,0,0,1,38.13-4.87h.37c24.26-.37,38.25-15.77,48.13-39.12A135.8,135.8,0,0,0,261,318.15c5.66-26.73,12.67-61.41,16.37-103.16a454.15,454.15,0,0,1,10.44-65.42q1.88-7.73,4.14-15a33.29,33.29,0,0,0-30.06-43.27L260,91.25c-16.38-.67-52.06-4.81-72.22-1.52-13.83,2.26-20.26,1.2-35.15,4.4-12.24,2.62-24.61,8.86-35.87,16.32s-17.49,10.12-28.27,21.79c-8.29,9-10.77,11.68-20.65,26-1.57,2.27-4.95,8.41-5.39,9-2.21,2.83-20.66,50.29-3.6-6.29.07-.21.59-3.65.9-4.49,8.09-21.55,9-19.76,18.86-31.43s20.27-17.8,34.13-26c12.37-7.36,27.84-14.37,44.64-20.34,15.19-5.41,32.05-7.56,53.25-9.3,16.47-1.34,46.7,0,64.26,2.43,14.78,2,29.5,2.66,43.8,6.16a3.15,3.15,0,0,0,3.2-1.08q22.82-28.48,58.88-44.82c1.05-.24,1.8.24,2.26,1.42a2.89,2.89,0,0,1,.07,2.08,2.75,2.75,0,0,1-1.4,1.45,119.52,119.52,0,0,0-27.22,19A142.37,142.37,0,0,0,335.39,78.24ZM159.87,438.16q22.07-5.06,38.63-13.55A91.88,91.88,0,0,0,223.3,406a3.13,3.13,0,0,0-2.11-5.27q-15.42-.8-31.29-.36a212.1,212.1,0,0,0-41.29,5.59q-14.19,3.25-19.93,9.54t-5.23,13.37q.63,7.59,8.55,10.75T159.87,438.16ZM392,380q49.9-11.43,68.41-45.25t7.68-81.09a179.45,179.45,0,0,0-18.73-48A216.7,216.7,0,0,0,417,162.25a239,239,0,0,0-43.28-35.69,226.35,226.35,0,0,0-48.91-23.78,3.11,3.11,0,0,0-3.83,1.6A202.2,202.2,0,0,0,306.87,146a420.11,420.11,0,0,0-8.3,53Q293,263.93,282,308.74,271.69,350.56,253.51,380a3.12,3.12,0,0,0,2.3,4.74q11.91,1.39,24.54,2.61,15.25,1.49,32.18,1.75a311.58,311.58,0,0,0,36.64-1.76A357.89,357.89,0,0,0,392,380Z" transform="translate(-11.22 -32)"/><text x="-11.22" y="-32"/><text class="cls-1" x="-11.22" y="-32"/><path d="M253,388" transform="translate(-11.22 -32)"/><text class="cls-4" transform="translate(466.29 355.95)">iefenbronn</text></svg>